<mxfile host="app.diagrams.net" modified="2024-01-31T03:01:51.986Z" agent="Mozilla/5.0 (Windows NT 10.0; Win64; x64) AppleWebKit/537.36 (KHTML, like Gecko) Chrome/120.0.0.0 Safari/537.36" etag="2w0XoCaMTbr3eXaTbzdP" version="23.0.2" type="device">
  <diagram name="Page-1" id="2YBvvXClWsGukQMizWep">
    <mxGraphModel dx="913" dy="491" grid="1" gridSize="10" guides="1" tooltips="1" connect="1" arrows="1" fold="1" page="1" pageScale="1" pageWidth="850" pageHeight="1100" math="0" shadow="0">
      <root>
        <mxCell id="0" />
        <mxCell id="1" parent="0" />
        <mxCell id="aM9ryv3xv72pqoxQDRHE-1" value="Client" style="shape=umlLifeline;perimeter=lifelinePerimeter;whiteSpace=wrap;html=1;container=0;dropTarget=0;collapsible=0;recursiveResize=0;outlineConnect=0;portConstraint=eastwest;newEdgeStyle={&quot;edgeStyle&quot;:&quot;elbowEdgeStyle&quot;,&quot;elbow&quot;:&quot;vertical&quot;,&quot;curved&quot;:0,&quot;rounded&quot;:0};" parent="1" vertex="1">
          <mxGeometry x="40" y="40" width="100" height="540" as="geometry" />
        </mxCell>
        <mxCell id="aM9ryv3xv72pqoxQDRHE-2" value="" style="html=1;points=[];perimeter=orthogonalPerimeter;outlineConnect=0;targetShapes=umlLifeline;portConstraint=eastwest;newEdgeStyle={&quot;edgeStyle&quot;:&quot;elbowEdgeStyle&quot;,&quot;elbow&quot;:&quot;vertical&quot;,&quot;curved&quot;:0,&quot;rounded&quot;:0};" parent="aM9ryv3xv72pqoxQDRHE-1" vertex="1">
          <mxGeometry x="45" y="70" width="10" height="370" as="geometry" />
        </mxCell>
        <mxCell id="aM9ryv3xv72pqoxQDRHE-3" value="dispatch" style="html=1;verticalAlign=bottom;startArrow=oval;endArrow=block;startSize=8;edgeStyle=elbowEdgeStyle;elbow=vertical;curved=0;rounded=0;" parent="aM9ryv3xv72pqoxQDRHE-1" target="aM9ryv3xv72pqoxQDRHE-2" edge="1">
          <mxGeometry relative="1" as="geometry">
            <mxPoint x="-15" y="70" as="sourcePoint" />
          </mxGeometry>
        </mxCell>
        <mxCell id="aM9ryv3xv72pqoxQDRHE-5" value="Server" style="shape=umlLifeline;perimeter=lifelinePerimeter;whiteSpace=wrap;html=1;container=0;dropTarget=0;collapsible=0;recursiveResize=0;outlineConnect=0;portConstraint=eastwest;newEdgeStyle={&quot;edgeStyle&quot;:&quot;elbowEdgeStyle&quot;,&quot;elbow&quot;:&quot;vertical&quot;,&quot;curved&quot;:0,&quot;rounded&quot;:0};" parent="1" vertex="1">
          <mxGeometry x="220" y="40" width="100" height="540" as="geometry" />
        </mxCell>
        <mxCell id="aM9ryv3xv72pqoxQDRHE-6" value="" style="html=1;points=[];perimeter=orthogonalPerimeter;outlineConnect=0;targetShapes=umlLifeline;portConstraint=eastwest;newEdgeStyle={&quot;edgeStyle&quot;:&quot;elbowEdgeStyle&quot;,&quot;elbow&quot;:&quot;vertical&quot;,&quot;curved&quot;:0,&quot;rounded&quot;:0};" parent="aM9ryv3xv72pqoxQDRHE-5" vertex="1">
          <mxGeometry x="45" y="80" width="10" height="360" as="geometry" />
        </mxCell>
        <mxCell id="aM9ryv3xv72pqoxQDRHE-7" value="łączy się" style="html=1;verticalAlign=bottom;endArrow=block;edgeStyle=elbowEdgeStyle;elbow=vertical;curved=0;rounded=0;" parent="1" source="aM9ryv3xv72pqoxQDRHE-2" target="aM9ryv3xv72pqoxQDRHE-6" edge="1">
          <mxGeometry relative="1" as="geometry">
            <mxPoint x="195" y="130" as="sourcePoint" />
            <Array as="points">
              <mxPoint x="180" y="120" />
            </Array>
          </mxGeometry>
        </mxCell>
        <mxCell id="aM9ryv3xv72pqoxQDRHE-9" value="wysyła dane i wybór gry" style="html=1;verticalAlign=bottom;endArrow=block;edgeStyle=elbowEdgeStyle;elbow=horizontal;curved=0;rounded=0;" parent="1" source="aM9ryv3xv72pqoxQDRHE-2" target="aM9ryv3xv72pqoxQDRHE-6" edge="1">
          <mxGeometry relative="1" as="geometry">
            <mxPoint x="175" y="160" as="sourcePoint" />
            <Array as="points">
              <mxPoint x="200" y="160" />
            </Array>
            <mxPoint x="340" y="150" as="targetPoint" />
          </mxGeometry>
        </mxCell>
        <mxCell id="8lF7yaq4pHystT6_2i3B-6" value="wysyła ruch" style="html=1;verticalAlign=bottom;endArrow=block;edgeStyle=elbowEdgeStyle;elbow=horizontal;curved=0;rounded=0;" edge="1" parent="1">
          <mxGeometry relative="1" as="geometry">
            <mxPoint x="100" y="230" as="sourcePoint" />
            <Array as="points">
              <mxPoint x="205" y="230" />
            </Array>
            <mxPoint x="260" y="230" as="targetPoint" />
          </mxGeometry>
        </mxCell>
        <mxCell id="8lF7yaq4pHystT6_2i3B-7" value="rozłącza się" style="html=1;verticalAlign=bottom;endArrow=block;edgeStyle=elbowEdgeStyle;elbow=vertical;curved=0;rounded=0;" edge="1" parent="1">
          <mxGeometry relative="1" as="geometry">
            <mxPoint x="100" y="480" as="sourcePoint" />
            <Array as="points">
              <mxPoint x="205" y="480" />
            </Array>
            <mxPoint x="260" y="480" as="targetPoint" />
          </mxGeometry>
        </mxCell>
        <mxCell id="8lF7yaq4pHystT6_2i3B-9" value="" style="html=1;points=[];perimeter=orthogonalPerimeter;outlineConnect=0;targetShapes=umlLifeline;portConstraint=eastwest;newEdgeStyle={&quot;edgeStyle&quot;:&quot;elbowEdgeStyle&quot;,&quot;elbow&quot;:&quot;vertical&quot;,&quot;curved&quot;:0,&quot;rounded&quot;:0};" vertex="1" parent="1">
          <mxGeometry x="390" y="180" width="10" height="300" as="geometry" />
        </mxCell>
        <mxCell id="8lF7yaq4pHystT6_2i3B-10" value="tworzy uzytkownika" style="html=1;verticalAlign=bottom;endArrow=block;edgeStyle=elbowEdgeStyle;elbow=horizontal;curved=0;rounded=0;" edge="1" parent="1">
          <mxGeometry relative="1" as="geometry">
            <mxPoint x="280" y="180" as="sourcePoint" />
            <Array as="points">
              <mxPoint x="385" y="180" />
            </Array>
            <mxPoint x="385" y="180" as="targetPoint" />
          </mxGeometry>
        </mxCell>
        <mxCell id="8lF7yaq4pHystT6_2i3B-12" value="" style="rounded=0;whiteSpace=wrap;html=1;" vertex="1" parent="1">
          <mxGeometry x="357.5" y="40" width="75" height="40" as="geometry" />
        </mxCell>
        <mxCell id="8lF7yaq4pHystT6_2i3B-13" value="tworzy grę" style="html=1;verticalAlign=bottom;endArrow=block;edgeStyle=elbowEdgeStyle;elbow=horizontal;curved=0;rounded=0;" edge="1" parent="1" target="8lF7yaq4pHystT6_2i3B-19">
          <mxGeometry relative="1" as="geometry">
            <mxPoint x="280" y="200" as="sourcePoint" />
            <Array as="points">
              <mxPoint x="385" y="200" />
            </Array>
            <mxPoint x="470" y="200" as="targetPoint" />
          </mxGeometry>
        </mxCell>
        <mxCell id="8lF7yaq4pHystT6_2i3B-14" value="dodaje użytkownika" style="html=1;verticalAlign=bottom;endArrow=block;edgeStyle=elbowEdgeStyle;elbow=vertical;curved=0;rounded=0;" edge="1" parent="1">
          <mxGeometry relative="1" as="geometry">
            <mxPoint x="400" y="220" as="sourcePoint" />
            <Array as="points" />
            <mxPoint x="480" y="220" as="targetPoint" />
          </mxGeometry>
        </mxCell>
        <mxCell id="8lF7yaq4pHystT6_2i3B-15" value="Pairer" style="text;html=1;strokeColor=none;fillColor=none;align=center;verticalAlign=middle;whiteSpace=wrap;rounded=0;" vertex="1" parent="1">
          <mxGeometry x="365" y="45" width="60" height="30" as="geometry" />
        </mxCell>
        <mxCell id="8lF7yaq4pHystT6_2i3B-16" value="" style="endArrow=none;dashed=1;html=1;rounded=0;entryX=0.5;entryY=1;entryDx=0;entryDy=0;" edge="1" parent="1">
          <mxGeometry width="50" height="50" relative="1" as="geometry">
            <mxPoint x="394.57" y="180" as="sourcePoint" />
            <mxPoint x="394.57" y="80" as="targetPoint" />
          </mxGeometry>
        </mxCell>
        <mxCell id="8lF7yaq4pHystT6_2i3B-17" value="" style="rounded=0;whiteSpace=wrap;html=1;" vertex="1" parent="1">
          <mxGeometry x="450" y="40" width="80" height="40" as="geometry" />
        </mxCell>
        <mxCell id="8lF7yaq4pHystT6_2i3B-18" value="ClientHandler" style="text;html=1;strokeColor=none;fillColor=none;align=center;verticalAlign=middle;whiteSpace=wrap;rounded=0;" vertex="1" parent="1">
          <mxGeometry x="450" y="47.5" width="80" height="25" as="geometry" />
        </mxCell>
        <mxCell id="8lF7yaq4pHystT6_2i3B-19" value="" style="html=1;points=[];perimeter=orthogonalPerimeter;outlineConnect=0;targetShapes=umlLifeline;portConstraint=eastwest;newEdgeStyle={&quot;edgeStyle&quot;:&quot;elbowEdgeStyle&quot;,&quot;elbow&quot;:&quot;vertical&quot;,&quot;curved&quot;:0,&quot;rounded&quot;:0};" vertex="1" parent="1">
          <mxGeometry x="485" y="200" width="10" height="280" as="geometry" />
        </mxCell>
        <mxCell id="8lF7yaq4pHystT6_2i3B-20" value="" style="endArrow=none;dashed=1;html=1;rounded=0;entryX=0.5;entryY=1;entryDx=0;entryDy=0;" edge="1" parent="1" source="8lF7yaq4pHystT6_2i3B-19" target="8lF7yaq4pHystT6_2i3B-17">
          <mxGeometry width="50" height="50" relative="1" as="geometry">
            <mxPoint x="220" y="230" as="sourcePoint" />
            <mxPoint x="270" y="180" as="targetPoint" />
          </mxGeometry>
        </mxCell>
        <mxCell id="8lF7yaq4pHystT6_2i3B-21" value="przesyła dane logowania" style="html=1;verticalAlign=bottom;endArrow=block;edgeStyle=elbowEdgeStyle;elbow=vertical;curved=0;rounded=0;" edge="1" parent="1">
          <mxGeometry relative="1" as="geometry">
            <mxPoint x="495" y="240.13" as="sourcePoint" />
            <Array as="points" />
            <mxPoint x="620" y="240" as="targetPoint" />
          </mxGeometry>
        </mxCell>
        <mxCell id="8lF7yaq4pHystT6_2i3B-22" value="" style="html=1;points=[];perimeter=orthogonalPerimeter;outlineConnect=0;targetShapes=umlLifeline;portConstraint=eastwest;newEdgeStyle={&quot;edgeStyle&quot;:&quot;elbowEdgeStyle&quot;,&quot;elbow&quot;:&quot;vertical&quot;,&quot;curved&quot;:0,&quot;rounded&quot;:0};" vertex="1" parent="1">
          <mxGeometry x="620" y="240" width="10" height="40" as="geometry" />
        </mxCell>
        <mxCell id="8lF7yaq4pHystT6_2i3B-24" value="potwierdza logowanie" style="html=1;verticalAlign=bottom;endArrow=block;edgeStyle=elbowEdgeStyle;elbow=vertical;curved=0;rounded=0;" edge="1" parent="1" source="8lF7yaq4pHystT6_2i3B-22">
          <mxGeometry relative="1" as="geometry">
            <mxPoint x="585" y="280.26" as="sourcePoint" />
            <Array as="points" />
            <mxPoint x="495" y="280" as="targetPoint" />
          </mxGeometry>
        </mxCell>
        <mxCell id="8lF7yaq4pHystT6_2i3B-25" value="" style="rounded=0;whiteSpace=wrap;html=1;" vertex="1" parent="1">
          <mxGeometry x="580" y="40" width="90" height="40" as="geometry" />
        </mxCell>
        <mxCell id="8lF7yaq4pHystT6_2i3B-26" value="LoginHandler" style="text;html=1;strokeColor=none;fillColor=none;align=center;verticalAlign=middle;whiteSpace=wrap;rounded=0;" vertex="1" parent="1">
          <mxGeometry x="595" y="45" width="60" height="30" as="geometry" />
        </mxCell>
        <mxCell id="8lF7yaq4pHystT6_2i3B-27" value="" style="endArrow=none;dashed=1;html=1;rounded=0;entryX=0.5;entryY=1;entryDx=0;entryDy=0;" edge="1" parent="1" source="8lF7yaq4pHystT6_2i3B-22" target="8lF7yaq4pHystT6_2i3B-25">
          <mxGeometry width="50" height="50" relative="1" as="geometry">
            <mxPoint x="570" y="240" as="sourcePoint" />
            <mxPoint x="620" y="190" as="targetPoint" />
          </mxGeometry>
        </mxCell>
        <mxCell id="8lF7yaq4pHystT6_2i3B-28" value="" style="endArrow=none;dashed=1;html=1;rounded=0;" edge="1" parent="1">
          <mxGeometry width="50" height="50" relative="1" as="geometry">
            <mxPoint x="624.57" y="560" as="sourcePoint" />
            <mxPoint x="624.57" y="280" as="targetPoint" />
          </mxGeometry>
        </mxCell>
        <mxCell id="8lF7yaq4pHystT6_2i3B-29" value="odbiera request o rozpoczęciu gry" style="html=1;verticalAlign=bottom;endArrow=block;edgeStyle=elbowEdgeStyle;elbow=vertical;curved=0;rounded=0;" edge="1" parent="1" target="8lF7yaq4pHystT6_2i3B-30">
          <mxGeometry relative="1" as="geometry">
            <mxPoint x="495" y="320.26" as="sourcePoint" />
            <Array as="points" />
            <mxPoint x="670" y="320" as="targetPoint" />
          </mxGeometry>
        </mxCell>
        <mxCell id="8lF7yaq4pHystT6_2i3B-30" value="" style="html=1;points=[];perimeter=orthogonalPerimeter;outlineConnect=0;targetShapes=umlLifeline;portConstraint=eastwest;newEdgeStyle={&quot;edgeStyle&quot;:&quot;elbowEdgeStyle&quot;,&quot;elbow&quot;:&quot;vertical&quot;,&quot;curved&quot;:0,&quot;rounded&quot;:0};" vertex="1" parent="1">
          <mxGeometry x="720" y="320" width="10" height="160" as="geometry" />
        </mxCell>
        <mxCell id="8lF7yaq4pHystT6_2i3B-31" value="tworzy grę" style="html=1;verticalAlign=bottom;endArrow=block;edgeStyle=elbowEdgeStyle;elbow=vertical;curved=0;rounded=0;" edge="1" parent="1" source="8lF7yaq4pHystT6_2i3B-30">
          <mxGeometry relative="1" as="geometry">
            <mxPoint x="670" y="350" as="sourcePoint" />
            <Array as="points" />
            <mxPoint x="277.13043478260875" y="350.34913043478264" as="targetPoint" />
          </mxGeometry>
        </mxCell>
        <mxCell id="8lF7yaq4pHystT6_2i3B-32" value="" style="rounded=0;whiteSpace=wrap;html=1;" vertex="1" parent="1">
          <mxGeometry x="680" y="40" width="90" height="40" as="geometry" />
        </mxCell>
        <mxCell id="8lF7yaq4pHystT6_2i3B-34" value="" style="endArrow=none;dashed=1;html=1;rounded=0;entryX=0.355;entryY=1.156;entryDx=0;entryDy=0;entryPerimeter=0;" edge="1" parent="1">
          <mxGeometry width="50" height="50" relative="1" as="geometry">
            <mxPoint x="725.0100000000001" y="320" as="sourcePoint" />
            <mxPoint x="724.565" y="82.57000000000005" as="targetPoint" />
          </mxGeometry>
        </mxCell>
        <mxCell id="8lF7yaq4pHystT6_2i3B-35" value="GameHandler" style="text;html=1;strokeColor=none;fillColor=none;align=center;verticalAlign=middle;whiteSpace=wrap;rounded=0;" vertex="1" parent="1">
          <mxGeometry x="687.5" y="45" width="75" height="32.5" as="geometry" />
        </mxCell>
        <mxCell id="8lF7yaq4pHystT6_2i3B-36" value="tworzy grę" style="html=1;verticalAlign=bottom;endArrow=block;edgeStyle=elbowEdgeStyle;elbow=vertical;curved=0;rounded=0;" edge="1" parent="1">
          <mxGeometry relative="1" as="geometry">
            <mxPoint x="260" y="370" as="sourcePoint" />
            <Array as="points" />
            <mxPoint x="100.00043478260875" y="369.6091304347826" as="targetPoint" />
          </mxGeometry>
        </mxCell>
        <mxCell id="8lF7yaq4pHystT6_2i3B-37" value="przesyła informacje o ruchu" style="html=1;verticalAlign=bottom;endArrow=block;edgeStyle=elbowEdgeStyle;elbow=vertical;curved=0;rounded=0;" edge="1" parent="1">
          <mxGeometry relative="1" as="geometry">
            <mxPoint x="100" y="400" as="sourcePoint" />
            <Array as="points" />
            <mxPoint x="710" y="400" as="targetPoint" />
          </mxGeometry>
        </mxCell>
        <mxCell id="8lF7yaq4pHystT6_2i3B-38" value="przesyła informacje o turze" style="html=1;verticalAlign=bottom;endArrow=block;edgeStyle=elbowEdgeStyle;elbow=vertical;curved=0;rounded=0;" edge="1" parent="1">
          <mxGeometry relative="1" as="geometry">
            <mxPoint x="720" y="420" as="sourcePoint" />
            <Array as="points" />
            <mxPoint x="100" y="420" as="targetPoint" />
          </mxGeometry>
        </mxCell>
        <mxCell id="8lF7yaq4pHystT6_2i3B-39" value="przesyła informacje o wygranej" style="html=1;verticalAlign=bottom;endArrow=block;edgeStyle=elbowEdgeStyle;elbow=vertical;curved=0;rounded=0;" edge="1" parent="1">
          <mxGeometry relative="1" as="geometry">
            <mxPoint x="720" y="460.13" as="sourcePoint" />
            <Array as="points" />
            <mxPoint x="100" y="460.13" as="targetPoint" />
          </mxGeometry>
        </mxCell>
        <mxCell id="8lF7yaq4pHystT6_2i3B-41" value="" style="endArrow=none;html=1;rounded=0;" edge="1" parent="1" source="8lF7yaq4pHystT6_2i3B-42">
          <mxGeometry width="50" height="50" relative="1" as="geometry">
            <mxPoint x="260" y="480" as="sourcePoint" />
            <mxPoint x="730" y="480" as="targetPoint" />
          </mxGeometry>
        </mxCell>
        <mxCell id="8lF7yaq4pHystT6_2i3B-43" value="" style="endArrow=none;html=1;rounded=0;" edge="1" parent="1" target="8lF7yaq4pHystT6_2i3B-42">
          <mxGeometry width="50" height="50" relative="1" as="geometry">
            <mxPoint x="260" y="480" as="sourcePoint" />
            <mxPoint x="730" y="480" as="targetPoint" />
          </mxGeometry>
        </mxCell>
        <mxCell id="8lF7yaq4pHystT6_2i3B-42" value="zamyka wszystkie" style="text;html=1;strokeColor=none;fillColor=none;align=center;verticalAlign=middle;whiteSpace=wrap;rounded=0;" vertex="1" parent="1">
          <mxGeometry x="280" y="460" width="110" height="30" as="geometry" />
        </mxCell>
        <mxCell id="8lF7yaq4pHystT6_2i3B-44" value="" style="endArrow=none;dashed=1;html=1;rounded=0;" edge="1" parent="1">
          <mxGeometry width="50" height="50" relative="1" as="geometry">
            <mxPoint x="489.57" y="580" as="sourcePoint" />
            <mxPoint x="489.57" y="480" as="targetPoint" />
            <Array as="points">
              <mxPoint x="489.57" y="530" />
            </Array>
          </mxGeometry>
        </mxCell>
        <mxCell id="8lF7yaq4pHystT6_2i3B-45" value="" style="endArrow=none;dashed=1;html=1;rounded=0;" edge="1" parent="1">
          <mxGeometry width="50" height="50" relative="1" as="geometry">
            <mxPoint x="724.5699999999999" y="580" as="sourcePoint" />
            <mxPoint x="724.5699999999999" y="480" as="targetPoint" />
            <Array as="points">
              <mxPoint x="724.5699999999999" y="530" />
            </Array>
          </mxGeometry>
        </mxCell>
        <mxCell id="8lF7yaq4pHystT6_2i3B-46" value="" style="endArrow=none;dashed=1;html=1;rounded=0;" edge="1" parent="1">
          <mxGeometry width="50" height="50" relative="1" as="geometry">
            <mxPoint x="394.57" y="590" as="sourcePoint" />
            <mxPoint x="394.57" y="490" as="targetPoint" />
            <Array as="points">
              <mxPoint x="394.57" y="540" />
            </Array>
          </mxGeometry>
        </mxCell>
        <mxCell id="8lF7yaq4pHystT6_2i3B-48" value="" style="endArrow=none;dashed=1;html=1;dashPattern=1 3;strokeWidth=2;rounded=0;" edge="1" parent="1">
          <mxGeometry width="50" height="50" relative="1" as="geometry">
            <mxPoint x="40" y="437" as="sourcePoint" />
            <mxPoint x="750" y="380" as="targetPoint" />
            <Array as="points">
              <mxPoint x="750" y="432.90999999999997" />
            </Array>
          </mxGeometry>
        </mxCell>
        <mxCell id="8lF7yaq4pHystT6_2i3B-49" value="" style="endArrow=none;dashed=1;html=1;dashPattern=1 3;strokeWidth=2;rounded=0;" edge="1" parent="1">
          <mxGeometry width="50" height="50" relative="1" as="geometry">
            <mxPoint x="40" y="440" as="sourcePoint" />
            <mxPoint x="750" y="380" as="targetPoint" />
            <Array as="points">
              <mxPoint x="40" y="380" />
            </Array>
          </mxGeometry>
        </mxCell>
        <mxCell id="8lF7yaq4pHystT6_2i3B-50" value="loop" style="text;html=1;strokeColor=none;fillColor=none;align=center;verticalAlign=middle;whiteSpace=wrap;rounded=0;" vertex="1" parent="1">
          <mxGeometry x="30" y="380" width="60" height="30" as="geometry" />
        </mxCell>
      </root>
    </mxGraphModel>
  </diagram>
</mxfile>
